# AST/ASF file generated using VICON BodyLanguage
# -----------------------------------------------
:version 1.10
:name VICON
:units
  mass 1.0
  length 0.45
  angle deg
:documentation
   .ast/.asf automatically generated from VICON data using
   VICON BodyBuilder and BodyLanguage model FoxedUp or BRILLIANT.MOD
:root
   order TX TY TZ RX RY RZ
   axis XYZ
   position 0 0 0  
   orientation 0 0 0 
:bonedata
  begin
     id 1 
     name lhipjoint
     direction 0.589753 -0.68606 0.426044 
     length 2.54082 
     axis 0 0 0  XYZ
  end
  begin
     id 2 
     name lfemur
     direction 0.34202 -0.939693 0  
     length 7.04539  
     axis 0 0 20  XYZ
    dof rx ry rz
    limits (-160.0 20.0)
           (-70.0 70.0)
           (-60.0 70.0)
  end
  begin
     id 3 
     name ltibia
     direction 0.34202 -0.939693 0   
     length 7.83772   
     axis 0 0 20   XYZ
    dof rx
    limits (-10.0 170.0)
  end
  begin
     id 4 
     name lfoot
     direction 0.0596604 -0.163915 0.984669   
     length 2.39542   
     axis -90 7.62852e-016 20   XYZ
    dof rx rz
    limits (-45.0 90.0)
           (-70.0 20.0)
  end
  begin
     id 5 
     name ltoes
     direction 1.53514e-011 -4.21954e-011 1   
     length 1.2047   
     axis -90 7.62852e-016 20   XYZ
    dof rx
    limits (-90.0 20.0)
  end
  begin
     id 6 
     name rhipjoint
     direction -0.580585 -0.69168 0.429534   
     length 2.52018  
     axis 0 0 0  XYZ 
  end
  begin
     id 7 
     name rfemur
     direction -0.34202 -0.939693 0   
     length 7.0101   
     axis 0 0 -20   XYZ
    dof rx ry rz
    limits (-160.0 20.0)
           (-70.0 70.0)
           (-70.0 60.0)
  end
  begin
     id 8 
     name rtibia
     direction -0.34202 -0.939693 0   
     length 7.70628   
     axis 0 0 -20   XYZ
    dof rx
    limits (-10.0 170.0)
 end
 begin
     id 9 
     name rfoot
     direction -0.0696237 -0.19129 0.979061   
     length 2.52466  
     axis -90 -7.62852e-016 -20   XYZ
    dof rx rz
    limits (-45.0 90.0)
           (-20.0 70.0)
  end
  begin
     id 10 
     name rtoes
     direction -1.53519e-011 -4.21793e-011 1   
     length 1.266   
     axis -90 -7.62852e-016 -20   XYZ
    dof rx
    limits (-90.0 20.0)
  end
  begin
     id 11 
     name lowerback
     direction 0.00381965 0.995707 -0.0924856   
     length 2.20825   
     axis 0 0 0   XYZ
    dof rx ry rz
    limits (-20.0 45.0)
           (-30.0 30.0)
           (-30.0 30.0)
  end
  begin
     id 12 
     name upperback
     direction -0.0139043 0.999634 -0.0231929   
     length 2.21517   
     axis 0 0 0   XYZ
    dof rx ry rz
    limits (-20.0 45.0)
           (-30.0 30.0)
           (-30.0 30.0)
  end
  begin
     id 13 
     name thorax
     direction -0.0143933 0.999691 0.0202892   
     length 2.22911   
     axis 0 0 0   XYZ
    dof rx ry rz
    limits (-20.0 45.0)
           (-30.0 30.0)
           (-30.0 30.0)
  end
  begin
     id 14 
     name lowerneck
     direction -0.0251153 0.981819 0.188153   
     length 1.61782   
     axis 0 0 0   XYZ
    dof rx ry rz
    limits (-20.0 45.0)
           (-30.0 30.0)
           (-30.0 30.0)
  end
  begin
     id 15 
     name upperneck
     direction 0.0563891 0.969357 -0.239095   
     length 1.64526   
     axis 0 0 0   XYZ
    dof rx ry rz
    limits (-20.0 45.0)
           (-30.0 30.0)
           (-30.0 30.0)
  end
  begin
     id 16
     name head
     direction 0.0208328 0.99459 -0.101773  
     length 1.67436  
     axis 0 0 0   XYZ
    dof rx ry rz
    limits (-20.0 45.0)
           (-30.0 30.0)
           (-30.0 30.0)
  end
  begin
     id 17 
     name lclavicle
     direction 0.917689 0.397224 0.00772059  
     length 3.31102  
     axis 0 0 0   XYZ
    dof ry rz
    limits (-20.0 10.0)
           (0.0 20.0)
  end
  begin
     id 18 
     name lhumerus
     direction 1 -4.4896e-011 2.32308e-027   
     length 5.25537   
     axis 180 -30 -90   XYZ
    dof rx ry rz
    limits (-60.0 90.0)
           (-90.0 90.0)
           (-90.0 90.0)
  end
  begin
     id 19
     name lradius
     direction 1 -4.49005e-011 -2.04271e-027   
     length 3.38855   
     axis 180 -30 -90   XYZ
    dof rx
    limits (-10.0 170.0)
  end
  begin
     id 20
     name lwrist
     direction 1 -4.48892e-011 2.56952e-028   
     length 1.69428   
     axis -5.12785e-016 90 90   XYZ
    dof ry
    limits (-180.0 0.0)
 end
  begin
     id 21 
     name lhand
     direction 1 -4.48966e-011 5.13905e-028   
     length 0.614516   
     axis -3.27915e-016 90 90   XYZ
    dof rx rz
    limits (-90.0 90.0)
           (-45.0 45.0)
  end
  begin
     id 22 
     name lfingers
     direction 1 -4.48979e-011 1.02781e-027   
     length 0.495439   
     axis -6.5583e-016 90 90   XYZ
    dof rx
    limits (0.0 90.0)
  end
  begin
     id 23
     name lthumb
     direction 0.707107 -6.35001e-011 0.707107   
     length 0.711354   
     axis -90 45 2.85299e-015   XYZ
    dof rx rz
    limits (-45.0 45.0)
           (-45.0 45.0)
  end
  begin
     id 24 
     name rclavicle
     direction -0.938556 0.342765 -0.0403177   
     length 3.27019  
     axis 0 0 0   XYZ 
    dof ry rz
    limits (-10.0 20.0)
           (-20.0 0.0)
  end
  begin
     id 25 
     name rhumerus
     direction -1 -4.48966e-011 2.52291e-027  
     length 5.38183   
     axis 180 30 90   XYZ
    dof rx ry rz
    limits (-90.0 60.0)
           (-90.0 90.0)
           (-90.0 90.0)
  end
  begin
     id 26 
     name rradius
     direction -1 -4.4896e-011 1.5797e-027   
     length 3.16988   
     axis 180 30 90   XYZ
    dof rx
    limits (-10.0 170.0)
  end
  begin
     id 27 
     name rwrist
     direction -1 -4.48947e-011 2.56952e-028   
     length 1.58494   
     axis -5.12785e-016 -90 -90   XYZ
    dof ry
    limits (-180.0 0.0)
  end
  begin
     id 28
     name rhand
     direction -1 -4.49098e-011 5.13905e-028   
     length 0.637679   
     axis -3.27915e-016 -90 -90   XYZ
    dof rx rz
    limits (-90.0 90.0)
           (-45.0 45.0)
  end
  begin
     id 29
     name rfingers
     direction -1 -4.49026e-011 1.02781e-027   
     length 0.514113   
     axis -6.5583e-016 -90 -90   XYZ
    dof rx
    limits (0.0 90.0)
  end
  begin
     id 30
     name rthumb
     direction -0.707107 -6.3491e-011 0.707107   
     length 0.738167   
     axis -90 -45 -2.85299e-015   XYZ
    dof rx rz
    limits (-45.0 45.0)
           (-45.0 45.0)
  end
:hierarchy
  begin
    root lhipjoint rhipjoint lowerback
    lhipjoint lfemur
    lfemur ltibia
    ltibia lfoot
    lfoot ltoes
    rhipjoint rfemur
    rfemur rtibia
    rtibia rfoot
    rfoot rtoes
    lowerback upperback
    upperback thorax
    thorax lowerneck lclavicle rclavicle
    lowerneck upperneck
    upperneck head
    lclavicle lhumerus
    lhumerus lradius
    lradius lwrist
    lwrist lhand lthumb
    lhand lfingers
    rclavicle rhumerus
    rhumerus rradius
    rradius rwrist
    rwrist rhand rthumb
    rhand rfingers
  end

#!OML:ASF H:\Swim\Project 1\Capture day 1\Session 1\swimmer.ASF
:FULLY-SPECIFIED
:DEGREES
2673
root 4.34471 11.8186 7.87669 89.7352 0.661948 -2.45971
lowerback 6.46506 -0.619547 3.05373
upperback 0.713962 -0.827888 -6.66294
thorax -3.03823 -0.490115 -8.69068
lowerneck -8.54293 -7.22403 -9.08864
upperneck 2.58139 -9.89233 19.3277
head 3.68573 -4.44483 6.81492
rclavicle -2.78299e-015 -1.60767e-014
rhumerus 42.1388 -4.00387 18.2504
rradius 30.7062
rwrist -50.9953
rhand -16.4414 -18.9156
rfingers 7.12502
rthumb 9.77433 -48.6687
lclavicle -2.78299e-015 -1.60767e-014
lhumerus 63.2459 19.3468 -1.45969
lradius 29.3908
lwrist -3.30746
lhand -10.7998 -337.253
lfingers 7.12502
lthumb 15.2134 -667.832
rfemur -27.4948 23.1575 10.1307
rtibia 34.8509
rfoot -35.511 -26.246
rtoes -5.51759
lfemur -29.3193 -19.5689 -9.95647
ltibia 34.1079
lfoot -6.86554 20.2105
ltoes 7.68098
2674
root 4.34251 11.8029 7.89281 89.7932 0.55194 -2.43117
lowerback 6.34852 -0.57251 2.93214
upperback 0.784085 -0.770638 -6.67344
thorax -2.88801 -0.453076 -8.63421
lowerneck -8.5977 -7.25473 -8.99209
upperneck 2.22106 -9.88384 19.1591
head 3.57241 -4.45924 6.74457
rclavicle 1.15295e-014 1.24737e-014
rhumerus 41.5313 -2.67196 18.3125
rradius 30.7291
rwrist -50.6669
rhand -16.2585 -18.751
rfingers 7.12502
rthumb 9.95081 -48.4958
lclavicle 1.15295e-014 1.24737e-014
lhumerus 61.8331 18.4622 -2.58235
lradius 29.8912
lwrist -3.24275
lhand -10.4484 -337.47
lfingers 7.12502
lthumb 15.5518 -668.075
rfemur -27.9469 20.8454 11.2403
rtibia 35.272
rfoot -32.9526 -25.1131
rtoes -8.15106
lfemur -29.9429 -18.3428 -10.9872
ltibia 34.4943
lfoot -6.08504 18.5696
ltoes 6.29322
2675
root 4.34025 11.7881 7.90692 89.7934 0.442886 -2.4137
lowerback 6.29214 -0.522509 2.81505
upperback 0.848437 -0.709173 -6.67996
thorax -2.7772 -0.41559 -8.57671
lowerneck -8.64696 -7.27058 -9.01574
upperneck 1.91832 -9.86161 19.1567
head 3.49003 -4.46049 6.74972
rclavicle -4.77083e-015 1.84124e-014
rhumerus 40.9794 -1.36092 18.2994
rradius 30.6698
rwrist -49.6525
rhand -15.925 -18.5221
rfingers 7.12502
rthumb 10.2725 -48.2513
lclavicle -4.77083e-015 1.84124e-014
lhumerus 60.4792 17.5368 -3.65194
lradius 30.4132
lwrist -3.45017
lhand -10.0557 -337.692
lfingers 7.12502
lthumb 15.93 -668.327
rfemur -28.35 18.9576 12.2582
rtibia 35.6538
rfoot -30.8436 -23.9997
rtoes -10.6166
lfemur -30.4821 -17.2328 -11.9883
ltibia 34.8522
lfoot -5.40441 17.0136
ltoes 5.04734
2676
root 4.33813 11.7742 7.91936 89.7476 0.344282 -2.40215
lowerback 6.28363 -0.474341 2.71206
upperback 0.909297 -0.649211 -6.67858
thorax -2.69751 -0.380214 -8.51902
lowerneck -8.70334 -7.2755 -9.14916
upperneck 1.67854 -9.82896 19.2862
head 3.44004 -4.45027 6.81643
rclavicle -3.97569e-015 5.2181e-015
rhumerus 40.4799 -0.0925352 18.2198
rradius 30.5217
rwrist -47.9346
rhand -15.4307 -18.2059
rfingers 7.12502
rthumb 10.7493 -47.9108
lclavicle -3.97569e-015 5.2181e-015
lhumerus 59.1795 16.5932 -4.66254
lradius 30.9523
lwrist -3.96869
lhand -9.56784 -337.963
lfingers 7.12502
lthumb 16.3998 -668.637
rfemur -28.7067 17.365 13.2088
rtibia 35.9895
rfoot -29.0908 -22.9091
rtoes -12.9693
lfemur -30.9606 -16.242 -12.9355
ltibia 35.1985
lfoot -4.78537 15.5227
ltoes 3.97145
2677
root 4.33637 11.7615 7.93013 89.6682 0.265128 -2.39493
lowerback 6.31025 -0.431737 2.63387
upperback 0.968661 -0.594829 -6.66352
thorax -2.64037 -0.3487 -8.46071
lowerneck -8.77009 -7.27341 -9.37992
upperneck 1.48698 -9.78741 19.5073
head 3.41557 -4.43088 6.92962
rclavicle -5.56597e-015 4.89756e-014
rhumerus 40.0356 1.06005 18.0315
rradius 30.2917
rwrist -45.5664
rhand -14.7097 -17.8029
rfingers 7.12502
rthumb 11.4447 -47.4705
lclavicle -5.56597e-015 4.89756e-014
lhumerus 57.9193 15.6466 -5.61447
lradius 31.5098
lwrist -4.65557
lhand -9.00674 -338.367
lfingers 7.12502
lthumb 16.9399 -669.086
rfemur -29.0248 16.0152 14.1004
rtibia 36.2788
rfoot -27.6696 -21.8066
rtoes -15.0652
lfemur -31.3986 -15.3524 -13.811
ltibia 35.5425
lfoot -4.19658 14.0544
ltoes 3.06996
2678
root 4.33512 11.7497 7.93911 89.5696 0.206317 -2.39237
lowerback 6.35713 -0.397925 2.5796
upperback 1.02636 -0.550217 -6.63008
thorax -2.59815 -0.322839 -8.39573
lowerneck -8.84868 -7.2671 -9.63321
upperneck 1.31175 -9.73717 19.7057
head 3.3962 -4.40638 7.04008
rclavicle -9.54166e-015 -1.76421e-015
rhumerus 39.6396 2.06304 17.7352
rradius 30.0059
rwrist -42.6381
rhand -13.8128 -17.3067
rfingers 7.12502
rthumb 12.3096 -46.9243
lclavicle -9.54166e-015 -1.76421e-015
lhumerus 56.6621 14.681 -6.55394
lradius 32.0973
lwrist -5.35056
lhand -8.45862 -338.876
lfingers 7.12502
lthumb 17.4675 -669.641
rfemur -29.3175 14.8825 14.9297
rtibia 36.5256
rfoot -26.5375 -20.7171
rtoes -16.9174
lfemur -31.8139 -14.5767 -14.6002
ltibia 35.8871
lfoot -3.6436 12.6136
ltoes 2.38112
2679
root 4.3346 11.7388 7.94658 89.4682 0.16499 -2.39419
lowerback 6.40268 -0.370756 2.54559
upperback 1.08167 -0.512602 -6.57728
thorax -2.55895 -0.30084 -8.32095
lowerneck -8.93772 -7.25777 -9.8809
upperneck 1.15394 -9.68062 19.8401
head 3.3781 -4.37881 7.12944
rclavicle 3.57812e-015 5.00689e-014
rhumerus 39.2758 2.87746 17.3154
rradius 29.7001
rwrist -39.3028
rhand -12.7684 -16.7132
rfingers 7.12502
rthumb 13.3164 -46.2677
lclavicle 3.57812e-015 5.00689e-014
lhumerus 55.4012 13.6884 -7.49951
lradius 32.7167
lwrist -5.96524
lhand -7.96508 -339.472
lfingers 7.12502
lthumb 17.9424 -670.28
rfemur -29.6041 13.9722 15.6821
rtibia 36.7396
rfoot -25.6487 -19.6809
rtoes -18.5429
lfemur -32.2201 -13.8189 -15.3202
ltibia 36.2271
lfoot -3.10904 11.1156
ltoes 1.89718
2680
root 4.33492 11.7287 7.9523 89.374 0.138199 -2.40431
lowerback 6.43738 -0.349202 2.52646
upperback 1.13096 -0.481097 -6.50636
thorax -2.52102 -0.282243 -8.23464
lowerneck -9.03044 -7.24321 -10.0956
upperneck 1.01728 -9.61629 19.8715
head 3.35693 -4.34842 7.18055
rclavicle -3.97569e-015 9.44227e-015
rhumerus 38.9352 3.49721 16.7681
rradius 29.4216
rwrist -35.7652
rhand -11.6625 -16.0321
rfingers 7.12502
rthumb 14.3822 -45.5139
lclavicle -3.97569e-015 9.44227e-015
lhumerus 54.1297 12.6525 -8.46789
lradius 33.3718
lwrist -6.46661
lhand -7.55053 -340.111
lfingers 7.12502
lthumb 18.3413 -670.956
rfemur -29.8974 13.2948 16.3457
rtibia 36.9309
rfoot -24.9897 -18.7277
rtoes -19.9292
lfemur -32.6218 -13.1711 -15.9462
ltibia 36.5545
lfoot -2.6396 9.69335
ltoes 1.62821
2681
root 4.33607 11.7194 7.9561 89.2964 0.117996 -2.42465
lowerback 6.44755 -0.330407 2.51439
upperback 1.17346 -0.452679 -6.42698
thorax -2.47702 -0.265293 -8.14294
lowerneck -9.13018 -7.21995 -10.2531
upperneck 0.927951 -9.54624 19.8123
head 3.34084 -4.31446 7.19269
rclavicle -6.16232e-015 7.57867e-015
rhumerus 38.5921 3.97568 16.1458
rradius 29.2321
rwrist -32.3006
rhand -10.6051 -15.2953
rfingers 7.12502
rthumb 15.4009 -44.7017
lclavicle -6.16232e-015 7.57867e-015
lhumerus 52.8519 11.5715 -9.47842
lradius 34.0693
lwrist -6.87397
lhand -7.20161 -340.757
lfingers 7.12502
lthumb 18.6769 -671.634
rfemur -30.2105 12.8213 16.914
rtibia 37.1111
rfoot -24.5064 -17.8921
rtoes -21.1208
lfemur -33.0188 -12.6854 -16.4693
ltibia 36.858
lfoot -2.25863 8.46384
ltoes 1.59853
2682
root 4.33789 11.711 7.95819 89.2357 0.0963453 -2.45685
lowerback 6.43246 -0.311619 2.49956
upperback 1.20768 -0.424606 -6.34478
thorax -2.42764 -0.248608 -8.04648
lowerneck -9.22822 -7.18946 -10.3467
upperneck 0.881039 -9.4736 19.6681
head 3.32755 -4.27917 7.16645
rclavicle 4.57205e-015 2.42517e-014
rhumerus 38.2301 4.38138 15.5099
rradius 29.1787
rwrist -29.1787
rhand -9.68842 -14.5425
rfingers 7.12502
rthumb 16.2837 -43.8788
lclavicle 4.57205e-015 2.42517e-014
lhumerus 51.572 10.4323 -10.5447
lradius 34.8146
lwrist -7.20001
lhand -6.91116 -341.375
lfingers 7.12502
lthumb 18.9563 -672.278
rfemur -30.5406 12.505 17.3892
rtibia 37.2868
rfoot -24.179 -17.1827
rtoes -22.0802
lfemur -33.4077 -12.3225 -16.9057
ltibia 37.1301
lfoot -1.95755 7.46273
ltoes 1.70015
